<svg width="16" height="16" viewBox="0 0 16 16" fill="none" xmlns="http://www.w3.org/2000/svg">
<path d="M11.9252 1.60664L11.8105 1.53884C10.6934 0.878686 9.39016 0.5 8 0.5C3.85786 0.5 0.5 3.85786 0.5 8C0.5 12.1421 3.85786 15.5 8 15.5C12.1421 15.5 15.5 12.1421 15.5 8C15.5 6.60984 15.1213 5.30661 14.4612 4.1895L14.3934 4.07475C14.5409 3.81249 14.625 3.50982 14.625 3.1875C14.625 2.18648 13.8135 1.375 12.8125 1.375C12.4902 1.375 12.1875 1.45914 11.9252 1.60664Z" fill="white" stroke="white"/>
<path fill-rule="evenodd" clip-rule="evenodd" d="M15 8C15 11.866 11.866 15 8 15C4.13401 15 1 11.866 1 8C1 4.13401 4.13401 1 8 1C9.29824 1 10.5139 1.35342 11.5561 1.96929C11.3528 2.179 11.2014 2.43946 11.1229 2.72985C10.2085 2.18681 9.14067 1.875 8 1.875C4.61726 1.875 1.875 4.61726 1.875 8C1.875 11.3827 4.61726 14.125 8 14.125C11.3827 14.125 14.125 11.3827 14.125 8C14.125 6.85933 13.8132 5.79148 13.2702 4.87705C13.5605 4.79858 13.821 4.64725 14.0307 4.44387C14.6466 5.48606 15 6.70176 15 8Z" fill="#424242"/>
<circle cx="12.8125" cy="3.1875" r="1.3125" fill="#519EFC"/>
<path fill-rule="evenodd" clip-rule="evenodd" d="M10.0685 10.0686C11.0936 9.04343 11.0936 7.38137 10.0685 6.35625C9.04334 5.33112 7.38128 5.33112 6.35616 6.35625C5.57723 7.13517 5.39016 8.28184 5.79494 9.2374L6.82018 8.21216C6.94832 8.08402 7.15608 8.08402 7.28422 8.21216C7.41236 8.3403 7.41236 8.54806 7.28422 8.6762L6.13838 9.82203C6.20495 9.90757 6.27754 9.98994 6.35616 10.0686C6.39514 10.1075 6.43504 10.145 6.47579 10.1811L7.86426 8.79258C7.9924 8.66444 8.20016 8.66444 8.3283 8.79258C8.45644 8.92072 8.45644 9.12848 8.3283 9.25662L7.02871 10.5562C7.19091 10.6382 7.35985 10.7022 7.53258 10.7483L8.90834 9.37256C9.03648 9.24442 9.24424 9.24442 9.37238 9.37256C9.50052 9.5007 9.50052 9.70846 9.37238 9.8366L8.3767 10.8323C8.9927 10.7939 9.59773 10.5393 10.0685 10.0686Z" fill="#519EFC"/>
</svg>
